<mxfile host="app.diagrams.net" agent="Mozilla/5.0 (Windows NT 10.0; Win64; x64) AppleWebKit/537.36 (KHTML, like Gecko) Chrome/128.0.0.0 Safari/537.36" version="24.7.10">
  <diagram name="Page-1" id="efa7a0a1-bf9b-a30e-e6df-94a7791c09e9">
    <mxGraphModel dx="1587" dy="957" grid="1" gridSize="10" guides="1" tooltips="1" connect="1" arrows="1" fold="1" page="1" pageScale="1" pageWidth="826" pageHeight="1169" background="none" math="0" shadow="0">
      <root>
        <mxCell id="0" />
        <mxCell id="1" parent="0" />
        <mxCell id="23" value="&lt;p style=&quot;margin: 0px; margin-top: 4px; text-align: center; text-decoration: underline;&quot;&gt;&lt;strong&gt;Difficulty&lt;/strong&gt;&lt;/p&gt;&lt;hr&gt;&lt;p style=&quot;margin: 0px; margin-left: 8px;&quot;&gt;id&lt;/p&gt;&lt;p style=&quot;margin: 0px; margin-left: 8px;&quot;&gt;difficultyName&lt;br&gt;&lt;/p&gt;" style="verticalAlign=top;align=left;overflow=fill;fontSize=12;fontFamily=Helvetica;html=1;shadow=1;rounded=1;sketch=1;curveFitting=1;jiggle=2;labelBackgroundColor=none;" parent="1" vertex="1">
          <mxGeometry x="1180" y="336.44" width="160" height="72.11" as="geometry" />
        </mxCell>
        <mxCell id="29" value="&lt;p style=&quot;margin: 0px; margin-top: 4px; text-align: center; text-decoration: underline;&quot;&gt;&lt;strong&gt;User&lt;/strong&gt;&lt;/p&gt;&lt;hr&gt;&lt;p style=&quot;margin: 0px; margin-left: 8px;&quot;&gt;userId&lt;/p&gt;&lt;p style=&quot;margin: 0px; margin-left: 8px;&quot;&gt;username&lt;/p&gt;&lt;p style=&quot;margin: 0px; margin-left: 8px;&quot;&gt;email&lt;/p&gt;&lt;p style=&quot;margin: 0px; margin-left: 8px;&quot;&gt;password&lt;/p&gt;&lt;p style=&quot;margin: 0px 0px 0px 8px;&quot;&gt;createdAt&lt;/p&gt;&lt;p style=&quot;margin: 0px 0px 0px 8px;&quot;&gt;updatedAt&lt;/p&gt;&lt;p style=&quot;margin: 0px 0px 0px 8px;&quot;&gt;enabled&lt;/p&gt;&lt;p style=&quot;margin: 0px 0px 0px 8px;&quot;&gt;workoutPlanId (FK)&lt;/p&gt;" style="verticalAlign=top;align=left;overflow=fill;fontSize=12;fontFamily=Helvetica;html=1;shadow=1;rounded=1;sketch=1;curveFitting=1;jiggle=2;labelBackgroundColor=none;" parent="1" vertex="1">
          <mxGeometry x="580" y="693.72" width="180" height="182.55" as="geometry" />
        </mxCell>
        <mxCell id="34" value="&lt;p style=&quot;margin: 0px ; margin-top: 4px ; text-align: center ; text-decoration: underline&quot;&gt;&lt;strong&gt;WorkoutPlan&lt;/strong&gt;&lt;/p&gt;&lt;hr&gt;&lt;p style=&quot;margin: 0px ; margin-left: 8px&quot;&gt;workoutPlanID (PK)&lt;/p&gt;&lt;p style=&quot;margin: 0px ; margin-left: 8px&quot;&gt;planName&lt;/p&gt;&lt;p style=&quot;margin: 0px ; margin-left: 8px&quot;&gt;userID (FK)&lt;/p&gt;" style="verticalAlign=top;align=left;overflow=fill;fontSize=12;fontFamily=Helvetica;html=1;shadow=1;rounded=1;sketch=1;curveFitting=1;jiggle=2;labelBackgroundColor=none;" parent="1" vertex="1">
          <mxGeometry x="900" y="730" width="190" height="110" as="geometry" />
        </mxCell>
        <mxCell id="87" value="" style="endArrow=open;endSize=12;startArrow=diamondThin;startSize=14;startFill=0;edgeStyle=orthogonalEdgeStyle;entryX=0.5;entryY=0;entryDx=0;entryDy=0;rounded=1;sketch=1;curveFitting=1;jiggle=2;labelBackgroundColor=none;fontColor=default;exitX=0.5;exitY=1;exitDx=0;exitDy=0;" parent="1" source="_uw9N7f6DqMWwpb47zAl-140" target="_uw9N7f6DqMWwpb47zAl-125" edge="1">
          <mxGeometry x="519.3599999999999" y="200" as="geometry">
            <mxPoint x="670" y="434.9999999999998" as="sourcePoint" />
            <mxPoint x="350" y="559.46" as="targetPoint" />
          </mxGeometry>
        </mxCell>
        <mxCell id="88" value="0..n" style="resizable=0;align=left;verticalAlign=top;labelBackgroundColor=none;fontSize=10;shadow=1;rounded=1;sketch=1;curveFitting=1;jiggle=2;" parent="87" connectable="0" vertex="1">
          <mxGeometry x="-1" relative="1" as="geometry">
            <mxPoint x="-40" as="offset" />
          </mxGeometry>
        </mxCell>
        <mxCell id="89" value="1" style="resizable=0;align=right;verticalAlign=top;labelBackgroundColor=none;fontSize=10;shadow=1;rounded=1;sketch=1;curveFitting=1;jiggle=2;" parent="87" connectable="0" vertex="1">
          <mxGeometry x="1" relative="1" as="geometry">
            <mxPoint x="19.99999999999981" y="-24.999999999999815" as="offset" />
          </mxGeometry>
        </mxCell>
        <mxCell id="99" value="" style="endArrow=open;endSize=12;startArrow=diamondThin;startSize=14;startFill=0;edgeStyle=orthogonalEdgeStyle;entryX=0.5;entryY=1;entryDx=0;entryDy=0;rounded=1;sketch=1;curveFitting=1;jiggle=2;labelBackgroundColor=none;fontColor=default;" parent="1" source="29" target="_uw9N7f6DqMWwpb47zAl-125" edge="1">
          <mxGeometry x="369.35999999999996" y="360" as="geometry">
            <mxPoint x="369.35999999999996" y="360" as="sourcePoint" />
            <mxPoint x="430" y="605.98" as="targetPoint" />
            <Array as="points" />
          </mxGeometry>
        </mxCell>
        <mxCell id="100" value="0..n" style="resizable=0;align=left;verticalAlign=top;labelBackgroundColor=none;fontSize=10;shadow=1;rounded=1;sketch=1;curveFitting=1;jiggle=2;" parent="99" connectable="0" vertex="1">
          <mxGeometry x="-1" relative="1" as="geometry">
            <mxPoint x="10" y="-24" as="offset" />
          </mxGeometry>
        </mxCell>
        <mxCell id="101" value="1" style="resizable=0;align=right;verticalAlign=top;labelBackgroundColor=none;fontSize=10;shadow=1;rounded=1;sketch=1;curveFitting=1;jiggle=2;" parent="99" connectable="0" vertex="1">
          <mxGeometry x="1" relative="1" as="geometry">
            <mxPoint x="19.99999999999981" y="1.8947806286936006e-13" as="offset" />
          </mxGeometry>
        </mxCell>
        <mxCell id="_uw9N7f6DqMWwpb47zAl-115" value="&lt;p style=&quot;margin: 0px; margin-top: 4px; text-align: center; text-decoration: underline;&quot;&gt;&lt;strong&gt;Exercise&lt;/strong&gt;&lt;/p&gt;&lt;hr&gt;&lt;p style=&quot;margin: 0px; margin-left: 8px;&quot;&gt;exerciseID (PK)&lt;/p&gt;&lt;p style=&quot;margin: 0px; margin-left: 8px;&quot;&gt;exerciseName&lt;/p&gt;&lt;p style=&quot;margin: 0px; margin-left: 8px;&quot;&gt;description&lt;/p&gt;&lt;p style=&quot;margin: 0px; margin-left: 8px;&quot;&gt;muscleSubGroupID (FK)&amp;nbsp;&lt;/p&gt;&lt;p style=&quot;margin: 0px; margin-left: 8px;&quot;&gt;difficultyLevelID (FK)&lt;/p&gt;&lt;p style=&quot;margin: 0px; margin-left: 8px;&quot;&gt;machineID (FK)&lt;br&gt;&lt;/p&gt;" style="verticalAlign=top;align=left;overflow=fill;fontSize=12;fontFamily=Helvetica;html=1;shadow=1;rounded=1;sketch=1;curveFitting=1;jiggle=2;labelBackgroundColor=none;" vertex="1" parent="1">
          <mxGeometry x="895" y="278.75" width="200" height="187.5" as="geometry" />
        </mxCell>
        <mxCell id="_uw9N7f6DqMWwpb47zAl-119" value="" style="endArrow=open;endSize=12;startArrow=diamondThin;startSize=14;startFill=0;edgeStyle=orthogonalEdgeStyle;exitX=0;exitY=0.5;exitDx=0;exitDy=0;entryX=1;entryY=0.5;entryDx=0;entryDy=0;rounded=1;sketch=1;curveFitting=1;jiggle=2;labelBackgroundColor=none;fontColor=default;" edge="1" parent="1" source="_uw9N7f6DqMWwpb47zAl-115" target="_uw9N7f6DqMWwpb47zAl-140">
          <mxGeometry x="620" y="340" as="geometry">
            <mxPoint x="570" y="150" as="sourcePoint" />
            <mxPoint x="750" y="372.4999999999998" as="targetPoint" />
            <Array as="points" />
          </mxGeometry>
        </mxCell>
        <mxCell id="_uw9N7f6DqMWwpb47zAl-120" value="0..n" style="resizable=0;align=left;verticalAlign=top;labelBackgroundColor=none;fontSize=10;shadow=1;rounded=1;sketch=1;curveFitting=1;jiggle=2;" connectable="0" vertex="1" parent="_uw9N7f6DqMWwpb47zAl-119">
          <mxGeometry x="-1" relative="1" as="geometry">
            <mxPoint x="-30" y="-27" as="offset" />
          </mxGeometry>
        </mxCell>
        <mxCell id="_uw9N7f6DqMWwpb47zAl-121" value="1" style="resizable=0;align=right;verticalAlign=top;labelBackgroundColor=none;fontSize=10;shadow=1;rounded=1;sketch=1;curveFitting=1;jiggle=2;" connectable="0" vertex="1" parent="_uw9N7f6DqMWwpb47zAl-119">
          <mxGeometry x="1" relative="1" as="geometry">
            <mxPoint x="21" y="-25" as="offset" />
          </mxGeometry>
        </mxCell>
        <mxCell id="_uw9N7f6DqMWwpb47zAl-122" value="" style="endArrow=open;endSize=12;startArrow=diamondThin;startSize=14;startFill=0;edgeStyle=orthogonalEdgeStyle;exitX=1;exitY=0.5;exitDx=0;exitDy=0;entryX=0;entryY=0.5;entryDx=0;entryDy=0;rounded=1;sketch=1;curveFitting=1;jiggle=2;labelBackgroundColor=none;fontColor=default;" edge="1" parent="1" source="_uw9N7f6DqMWwpb47zAl-115" target="23">
          <mxGeometry x="620" y="340" as="geometry">
            <mxPoint x="620" y="254" as="sourcePoint" />
            <mxPoint x="440" y="254" as="targetPoint" />
            <Array as="points" />
          </mxGeometry>
        </mxCell>
        <mxCell id="_uw9N7f6DqMWwpb47zAl-123" value="0..n" style="resizable=0;align=left;verticalAlign=top;labelBackgroundColor=none;fontSize=10;shadow=1;rounded=1;sketch=1;curveFitting=1;jiggle=2;" connectable="0" vertex="1" parent="_uw9N7f6DqMWwpb47zAl-122">
          <mxGeometry x="-1" relative="1" as="geometry">
            <mxPoint x="10" y="-27" as="offset" />
          </mxGeometry>
        </mxCell>
        <mxCell id="_uw9N7f6DqMWwpb47zAl-124" value="1" style="resizable=0;align=right;verticalAlign=top;labelBackgroundColor=none;fontSize=10;shadow=1;rounded=1;sketch=1;curveFitting=1;jiggle=2;" connectable="0" vertex="1" parent="_uw9N7f6DqMWwpb47zAl-122">
          <mxGeometry x="1" relative="1" as="geometry">
            <mxPoint x="-21" y="-25" as="offset" />
          </mxGeometry>
        </mxCell>
        <mxCell id="_uw9N7f6DqMWwpb47zAl-125" value="&lt;p style=&quot;margin: 0px ; margin-top: 4px ; text-align: center ; text-decoration: underline&quot;&gt;&lt;strong&gt;MuscleGroup&lt;/strong&gt;&lt;br&gt;&lt;/p&gt;&lt;hr&gt;&lt;p style=&quot;margin: 0px 0px 0px 8px;&quot;&gt;muscleGroupId&lt;/p&gt;&lt;p style=&quot;margin: 0px 0px 0px 8px;&quot;&gt;muscleGroupName&lt;/p&gt;" style="verticalAlign=top;align=left;overflow=fill;fontSize=12;fontFamily=Helvetica;html=1;shadow=1;rounded=1;sketch=1;curveFitting=1;jiggle=2;labelBackgroundColor=none;" vertex="1" parent="1">
          <mxGeometry x="590" y="530.0000000000003" width="160" height="90" as="geometry" />
        </mxCell>
        <mxCell id="_uw9N7f6DqMWwpb47zAl-127" value="" style="endArrow=open;endSize=12;startArrow=diamondThin;startSize=14;startFill=0;edgeStyle=orthogonalEdgeStyle;entryX=1;entryY=0.5;rounded=1;entryDx=0;entryDy=0;sketch=1;curveFitting=1;jiggle=2;labelBackgroundColor=none;fontColor=default;" edge="1" parent="1" source="34" target="29">
          <mxGeometry x="419.35999999999996" y="820" as="geometry">
            <mxPoint x="1070" y="607" as="sourcePoint" />
            <mxPoint x="980" y="605.9800000000005" as="targetPoint" />
          </mxGeometry>
        </mxCell>
        <mxCell id="_uw9N7f6DqMWwpb47zAl-128" value="0..n" style="resizable=0;align=left;verticalAlign=top;labelBackgroundColor=none;fontSize=10;shadow=1;rounded=1;sketch=1;curveFitting=1;jiggle=2;" connectable="0" vertex="1" parent="_uw9N7f6DqMWwpb47zAl-127">
          <mxGeometry x="-1" relative="1" as="geometry">
            <mxPoint x="-30" y="-37" as="offset" />
          </mxGeometry>
        </mxCell>
        <mxCell id="_uw9N7f6DqMWwpb47zAl-130" value="1" style="resizable=0;align=right;verticalAlign=top;labelBackgroundColor=none;fontSize=10;shadow=1;rounded=1;sketch=1;curveFitting=1;jiggle=2;" connectable="0" vertex="1" parent="1">
          <mxGeometry x="739.995395873607" y="699.9996362908553" as="geometry">
            <mxPoint x="34" y="52" as="offset" />
          </mxGeometry>
        </mxCell>
        <mxCell id="_uw9N7f6DqMWwpb47zAl-132" value="" style="endArrow=open;endSize=12;startArrow=open;startSize=14;startFill=0;edgeStyle=orthogonalEdgeStyle;entryX=0.5;entryY=1;entryDx=0;entryDy=0;exitX=0.5;exitY=0;exitDx=0;exitDy=0;rounded=1;sketch=1;curveFitting=1;jiggle=2;labelBackgroundColor=none;fontColor=default;" edge="1" parent="1" source="_uw9N7f6DqMWwpb47zAl-136" target="_uw9N7f6DqMWwpb47zAl-115">
          <mxGeometry x="369.35999999999996" y="360" as="geometry">
            <mxPoint x="1050" y="580" as="sourcePoint" />
            <mxPoint x="910" y="580" as="targetPoint" />
            <Array as="points" />
          </mxGeometry>
        </mxCell>
        <mxCell id="_uw9N7f6DqMWwpb47zAl-134" value="0...n" style="resizable=0;align=right;verticalAlign=top;labelBackgroundColor=none;fontSize=10;shadow=1;rounded=1;sketch=1;curveFitting=1;jiggle=2;" connectable="0" vertex="1" parent="_uw9N7f6DqMWwpb47zAl-132">
          <mxGeometry x="1" relative="1" as="geometry">
            <mxPoint x="-15" y="3" as="offset" />
          </mxGeometry>
        </mxCell>
        <mxCell id="_uw9N7f6DqMWwpb47zAl-137" value="" style="endArrow=open;endSize=12;startArrow=open;startSize=14;startFill=0;edgeStyle=orthogonalEdgeStyle;entryX=0.5;entryY=1;entryDx=0;entryDy=0;exitX=0.5;exitY=0;exitDx=0;exitDy=0;rounded=1;sketch=1;curveFitting=1;jiggle=2;labelBackgroundColor=none;fontColor=default;" edge="1" parent="1" source="34" target="_uw9N7f6DqMWwpb47zAl-136">
          <mxGeometry x="369.35999999999996" y="360" as="geometry">
            <mxPoint x="995" y="730" as="sourcePoint" />
            <mxPoint x="995" y="466" as="targetPoint" />
            <Array as="points" />
          </mxGeometry>
        </mxCell>
        <mxCell id="_uw9N7f6DqMWwpb47zAl-138" value="0..n" style="resizable=0;align=left;verticalAlign=top;labelBackgroundColor=none;fontSize=10;shadow=1;rounded=1;sketch=1;curveFitting=1;jiggle=2;" connectable="0" vertex="1" parent="_uw9N7f6DqMWwpb47zAl-137">
          <mxGeometry x="-1" relative="1" as="geometry">
            <mxPoint x="-35" y="-30" as="offset" />
          </mxGeometry>
        </mxCell>
        <mxCell id="_uw9N7f6DqMWwpb47zAl-136" value="&lt;p style=&quot;margin: 0px; margin-top: 4px; text-align: center; text-decoration: underline;&quot;&gt;&lt;b&gt;WorkoutPlan_Exercise&lt;br&gt;&lt;/b&gt;&lt;/p&gt;&lt;hr&gt;&lt;p style=&quot;margin: 0px; margin-left: 8px;&quot;&gt;workoutPlanID (PK, FK)&lt;/p&gt;&lt;p style=&quot;margin: 0px; margin-left: 8px;&quot;&gt;exerciseID (PK, FK)&lt;/p&gt;" style="verticalAlign=top;align=left;overflow=fill;fontSize=12;fontFamily=Helvetica;html=1;shadow=1;rounded=1;sketch=1;curveFitting=1;jiggle=2;labelBackgroundColor=none;" vertex="1" parent="1">
          <mxGeometry x="915" y="548" width="160" height="72.11" as="geometry" />
        </mxCell>
        <mxCell id="_uw9N7f6DqMWwpb47zAl-140" value="&lt;p style=&quot;margin: 0px ; margin-top: 4px ; text-align: center ; text-decoration: underline&quot;&gt;&lt;strong&gt;MuscleGroup&lt;/strong&gt;&lt;br&gt;&lt;/p&gt;&lt;hr&gt;&lt;p style=&quot;margin: 0px 0px 0px 8px;&quot;&gt;muscleSubGroupID (PK)&lt;/p&gt;&lt;p style=&quot;margin: 0px 0px 0px 8px;&quot;&gt;muscleSubGroupName&lt;/p&gt;&lt;p style=&quot;margin: 0px 0px 0px 8px;&quot;&gt;muscleGroupID (FK)&lt;/p&gt;" style="verticalAlign=top;align=left;overflow=fill;fontSize=12;fontFamily=Helvetica;html=1;shadow=1;rounded=1;sketch=1;curveFitting=1;jiggle=2;labelBackgroundColor=none;" vertex="1" parent="1">
          <mxGeometry x="575" y="312.5" width="190" height="120" as="geometry" />
        </mxCell>
      </root>
    </mxGraphModel>
  </diagram>
</mxfile>
